<mxfile host="Electron" agent="Mozilla/5.0 (Windows NT 10.0; Win64; x64) AppleWebKit/537.36 (KHTML, like Gecko) draw.io/28.0.6 Chrome/138.0.7204.100 Electron/37.2.3 Safari/537.36" version="28.0.6">
  <diagram name="Page-1" id="WUa1wBnYFxGp2PymHtiY">
    <mxGraphModel dx="1426" dy="849" grid="1" gridSize="10" guides="1" tooltips="1" connect="1" arrows="1" fold="1" page="1" pageScale="1" pageWidth="1100" pageHeight="850" math="0" shadow="0">
      <root>
        <mxCell id="0" />
        <mxCell id="1" parent="0" />
        <mxCell id="uElhz5W2VMT7LLKcBRAe-1" value="" style="rounded=1;whiteSpace=wrap;html=1;" parent="1" vertex="1">
          <mxGeometry x="180" y="230" width="210" height="470" as="geometry" />
        </mxCell>
        <mxCell id="uElhz5W2VMT7LLKcBRAe-2" value="SOURCES" style="rounded=0;whiteSpace=wrap;html=1;fontSize=17;fontStyle=1" parent="1" vertex="1">
          <mxGeometry x="225" y="200" width="120" height="60" as="geometry" />
        </mxCell>
        <mxCell id="uElhz5W2VMT7LLKcBRAe-3" value="CRM" style="image;aspect=fixed;html=1;points=[];align=center;fontSize=15;image=img/lib/azure2/general/Folder_Blank.svg;fontStyle=1" parent="1" vertex="1">
          <mxGeometry x="250.5" y="325" width="69.5" height="56.41" as="geometry" />
        </mxCell>
        <mxCell id="uElhz5W2VMT7LLKcBRAe-7" value="ERP" style="image;aspect=fixed;html=1;points=[];align=center;fontSize=15;image=img/lib/azure2/general/Folder_Blank.svg;fontStyle=1" parent="1" vertex="1">
          <mxGeometry x="250.5" y="520" width="69" height="56.00000000000001" as="geometry" />
        </mxCell>
        <mxCell id="uElhz5W2VMT7LLKcBRAe-10" value="Bronze Layer" style="rounded=1;whiteSpace=wrap;html=1;fontStyle=1;fontSize=20;fillColor=#ffe6cc;strokeColor=#d79b00;" parent="1" vertex="1">
          <mxGeometry x="520" y="180" width="180" height="60" as="geometry" />
        </mxCell>
        <mxCell id="uElhz5W2VMT7LLKcBRAe-11" value="" style="rounded=1;whiteSpace=wrap;html=1;fillColor=none;strokeColor=#d6b656;" parent="1" vertex="1">
          <mxGeometry x="505" y="245" width="220" height="440" as="geometry" />
        </mxCell>
        <mxCell id="cNfs1ux-SkmwOEUfrLgg-9" style="edgeStyle=orthogonalEdgeStyle;rounded=0;orthogonalLoop=1;jettySize=auto;html=1;exitX=1;exitY=0.5;exitDx=0;exitDy=0;" parent="1" source="uElhz5W2VMT7LLKcBRAe-12" target="cNfs1ux-SkmwOEUfrLgg-3" edge="1">
          <mxGeometry relative="1" as="geometry" />
        </mxCell>
        <mxCell id="uElhz5W2VMT7LLKcBRAe-12" value="cust_info" style="rounded=1;whiteSpace=wrap;html=1;fontStyle=1;fontSize=17;fillColor=#ffe6cc;strokeColor=#d79b00;" parent="1" vertex="1">
          <mxGeometry x="532.5" y="334" width="170" height="30" as="geometry" />
        </mxCell>
        <mxCell id="cNfs1ux-SkmwOEUfrLgg-10" style="edgeStyle=orthogonalEdgeStyle;rounded=0;orthogonalLoop=1;jettySize=auto;html=1;exitX=1;exitY=0.5;exitDx=0;exitDy=0;" parent="1" source="uElhz5W2VMT7LLKcBRAe-14" target="cNfs1ux-SkmwOEUfrLgg-4" edge="1">
          <mxGeometry relative="1" as="geometry" />
        </mxCell>
        <mxCell id="uElhz5W2VMT7LLKcBRAe-14" value="crm_prd_info" style="rounded=1;whiteSpace=wrap;html=1;fontStyle=1;fontSize=17;fillColor=#ffe6cc;strokeColor=#d79b00;" parent="1" vertex="1">
          <mxGeometry x="532.5" y="377.2" width="170" height="30" as="geometry" />
        </mxCell>
        <mxCell id="cNfs1ux-SkmwOEUfrLgg-11" style="edgeStyle=orthogonalEdgeStyle;rounded=0;orthogonalLoop=1;jettySize=auto;html=1;exitX=1;exitY=0.5;exitDx=0;exitDy=0;entryX=0;entryY=0.5;entryDx=0;entryDy=0;" parent="1" source="uElhz5W2VMT7LLKcBRAe-15" target="cNfs1ux-SkmwOEUfrLgg-5" edge="1">
          <mxGeometry relative="1" as="geometry" />
        </mxCell>
        <mxCell id="uElhz5W2VMT7LLKcBRAe-15" value="crm_sales_details" style="rounded=1;whiteSpace=wrap;html=1;fontStyle=1;fontSize=17;fillColor=#ffe6cc;strokeColor=#d79b00;" parent="1" vertex="1">
          <mxGeometry x="532.5" y="290" width="170" height="30" as="geometry" />
        </mxCell>
        <mxCell id="cNfs1ux-SkmwOEUfrLgg-12" style="edgeStyle=orthogonalEdgeStyle;rounded=0;orthogonalLoop=1;jettySize=auto;html=1;exitX=1;exitY=0.5;exitDx=0;exitDy=0;entryX=0;entryY=0.5;entryDx=0;entryDy=0;" parent="1" source="uElhz5W2VMT7LLKcBRAe-16" target="cNfs1ux-SkmwOEUfrLgg-6" edge="1">
          <mxGeometry relative="1" as="geometry" />
        </mxCell>
        <mxCell id="uElhz5W2VMT7LLKcBRAe-16" value="CUST_AZ12" style="rounded=1;whiteSpace=wrap;html=1;fontStyle=1;fontSize=17;fillColor=#ffe6cc;strokeColor=#d79b00;" parent="1" vertex="1">
          <mxGeometry x="530" y="490" width="170" height="30" as="geometry" />
        </mxCell>
        <mxCell id="cNfs1ux-SkmwOEUfrLgg-13" style="edgeStyle=orthogonalEdgeStyle;rounded=0;orthogonalLoop=1;jettySize=auto;html=1;exitX=1;exitY=0.5;exitDx=0;exitDy=0;entryX=0;entryY=0.5;entryDx=0;entryDy=0;" parent="1" source="uElhz5W2VMT7LLKcBRAe-17" target="cNfs1ux-SkmwOEUfrLgg-7" edge="1">
          <mxGeometry relative="1" as="geometry" />
        </mxCell>
        <mxCell id="uElhz5W2VMT7LLKcBRAe-17" value="LOC_A101" style="rounded=1;whiteSpace=wrap;html=1;fontStyle=1;fontSize=17;fillColor=#ffe6cc;strokeColor=#d79b00;" parent="1" vertex="1">
          <mxGeometry x="529" y="540" width="170" height="30" as="geometry" />
        </mxCell>
        <mxCell id="cNfs1ux-SkmwOEUfrLgg-14" style="edgeStyle=orthogonalEdgeStyle;rounded=0;orthogonalLoop=1;jettySize=auto;html=1;exitX=1;exitY=0.5;exitDx=0;exitDy=0;entryX=0;entryY=0.5;entryDx=0;entryDy=0;" parent="1" source="uElhz5W2VMT7LLKcBRAe-18" target="cNfs1ux-SkmwOEUfrLgg-8" edge="1">
          <mxGeometry relative="1" as="geometry" />
        </mxCell>
        <mxCell id="uElhz5W2VMT7LLKcBRAe-18" value="PX_CAT_G1V2" style="rounded=1;whiteSpace=wrap;html=1;fontStyle=1;fontSize=17;fillColor=#ffe6cc;strokeColor=#d79b00;" parent="1" vertex="1">
          <mxGeometry x="531.5" y="590" width="170" height="30" as="geometry" />
        </mxCell>
        <mxCell id="uElhz5W2VMT7LLKcBRAe-24" value="" style="endArrow=classic;html=1;rounded=0;" parent="1" edge="1">
          <mxGeometry width="50" height="50" relative="1" as="geometry">
            <mxPoint x="460" y="310" as="sourcePoint" />
            <mxPoint x="530" y="309.5" as="targetPoint" />
            <Array as="points">
              <mxPoint x="500" y="309.5" />
            </Array>
          </mxGeometry>
        </mxCell>
        <mxCell id="uElhz5W2VMT7LLKcBRAe-25" value="" style="endArrow=classic;html=1;rounded=0;exitX=1.014;exitY=0.514;exitDx=0;exitDy=0;exitPerimeter=0;" parent="1" source="uElhz5W2VMT7LLKcBRAe-3" edge="1">
          <mxGeometry width="50" height="50" relative="1" as="geometry">
            <mxPoint x="460" y="352.7" as="sourcePoint" />
            <mxPoint x="530" y="352.7" as="targetPoint" />
            <Array as="points">
              <mxPoint x="480" y="352.7" />
              <mxPoint x="500" y="352.7" />
            </Array>
          </mxGeometry>
        </mxCell>
        <mxCell id="uElhz5W2VMT7LLKcBRAe-26" value="" style="endArrow=classic;html=1;rounded=0;" parent="1" edge="1">
          <mxGeometry width="50" height="50" relative="1" as="geometry">
            <mxPoint x="460" y="395.91" as="sourcePoint" />
            <mxPoint x="530" y="395.91" as="targetPoint" />
            <Array as="points">
              <mxPoint x="500" y="395.91" />
            </Array>
          </mxGeometry>
        </mxCell>
        <mxCell id="uElhz5W2VMT7LLKcBRAe-27" value="" style="endArrow=none;html=1;rounded=0;" parent="1" edge="1">
          <mxGeometry width="50" height="50" relative="1" as="geometry">
            <mxPoint x="460" y="395" as="sourcePoint" />
            <mxPoint x="460" y="310" as="targetPoint" />
            <Array as="points" />
          </mxGeometry>
        </mxCell>
        <mxCell id="uElhz5W2VMT7LLKcBRAe-28" value="" style="endArrow=classic;html=1;rounded=0;exitX=1.014;exitY=0.514;exitDx=0;exitDy=0;exitPerimeter=0;" parent="1" edge="1">
          <mxGeometry width="50" height="50" relative="1" as="geometry">
            <mxPoint x="319.5" y="555.65" as="sourcePoint" />
            <mxPoint x="528.5" y="554.35" as="targetPoint" />
            <Array as="points">
              <mxPoint x="478.5" y="554.35" />
              <mxPoint x="498.5" y="554.35" />
            </Array>
          </mxGeometry>
        </mxCell>
        <mxCell id="uElhz5W2VMT7LLKcBRAe-29" value="" style="endArrow=classic;html=1;rounded=0;" parent="1" edge="1">
          <mxGeometry width="50" height="50" relative="1" as="geometry">
            <mxPoint x="460" y="505" as="sourcePoint" />
            <mxPoint x="530" y="504.5" as="targetPoint" />
            <Array as="points">
              <mxPoint x="500" y="504.5" />
            </Array>
          </mxGeometry>
        </mxCell>
        <mxCell id="uElhz5W2VMT7LLKcBRAe-30" value="" style="endArrow=classic;html=1;rounded=0;" parent="1" edge="1">
          <mxGeometry width="50" height="50" relative="1" as="geometry">
            <mxPoint x="460" y="605" as="sourcePoint" />
            <mxPoint x="530" y="604.5" as="targetPoint" />
            <Array as="points">
              <mxPoint x="500" y="604.5" />
            </Array>
          </mxGeometry>
        </mxCell>
        <mxCell id="uElhz5W2VMT7LLKcBRAe-31" value="" style="endArrow=none;html=1;rounded=0;" parent="1" edge="1">
          <mxGeometry width="50" height="50" relative="1" as="geometry">
            <mxPoint x="460" y="604" as="sourcePoint" />
            <mxPoint x="460" y="506" as="targetPoint" />
            <Array as="points" />
          </mxGeometry>
        </mxCell>
        <mxCell id="cNfs1ux-SkmwOEUfrLgg-1" value="Silver Layer" style="rounded=1;whiteSpace=wrap;html=1;fontStyle=1;fontSize=20;fillColor=#f5f5f5;strokeColor=#666666;fontColor=#333333;" parent="1" vertex="1">
          <mxGeometry x="815" y="180" width="180" height="60" as="geometry" />
        </mxCell>
        <mxCell id="cNfs1ux-SkmwOEUfrLgg-2" value="" style="rounded=1;whiteSpace=wrap;html=1;fillColor=none;strokeColor=#666666;fontColor=#333333;" parent="1" vertex="1">
          <mxGeometry x="800" y="245" width="220" height="440" as="geometry" />
        </mxCell>
        <mxCell id="cNfs1ux-SkmwOEUfrLgg-3" value="cust_info" style="rounded=1;whiteSpace=wrap;html=1;fontStyle=1;fontSize=17;fillColor=#f5f5f5;strokeColor=#666666;fontColor=#333333;" parent="1" vertex="1">
          <mxGeometry x="826.5" y="334" width="170" height="30" as="geometry" />
        </mxCell>
        <mxCell id="cNfs1ux-SkmwOEUfrLgg-4" value="crm_prd_info" style="rounded=1;whiteSpace=wrap;html=1;fontStyle=1;fontSize=17;fillColor=#f5f5f5;strokeColor=#666666;fontColor=#333333;" parent="1" vertex="1">
          <mxGeometry x="827.5" y="377.20000000000005" width="170" height="30" as="geometry" />
        </mxCell>
        <mxCell id="cNfs1ux-SkmwOEUfrLgg-5" value="crm_sales_details" style="rounded=1;whiteSpace=wrap;html=1;fontStyle=1;fontSize=17;fillColor=#f5f5f5;strokeColor=#666666;fontColor=#333333;" parent="1" vertex="1">
          <mxGeometry x="827.5" y="290.0000000000001" width="170" height="30" as="geometry" />
        </mxCell>
        <mxCell id="cNfs1ux-SkmwOEUfrLgg-6" value="CUST_AZ12" style="rounded=1;whiteSpace=wrap;html=1;fontStyle=1;fontSize=17;fillColor=#f5f5f5;strokeColor=#666666;fontColor=#333333;" parent="1" vertex="1">
          <mxGeometry x="825" y="490" width="170" height="30" as="geometry" />
        </mxCell>
        <mxCell id="cNfs1ux-SkmwOEUfrLgg-7" value="LOC_A101" style="rounded=1;whiteSpace=wrap;html=1;fontStyle=1;fontSize=17;fillColor=#f5f5f5;strokeColor=#666666;fontColor=#333333;" parent="1" vertex="1">
          <mxGeometry x="824" y="540" width="170" height="30" as="geometry" />
        </mxCell>
        <mxCell id="cNfs1ux-SkmwOEUfrLgg-8" value="PX_CAT_G1V2" style="rounded=1;whiteSpace=wrap;html=1;fontStyle=1;fontSize=17;fillColor=#f5f5f5;strokeColor=#666666;fontColor=#333333;" parent="1" vertex="1">
          <mxGeometry x="826.5" y="590" width="170" height="30" as="geometry" />
        </mxCell>
        <mxCell id="o6N39BrIsIztjsTOsf7G-1" value="GOLD Layer" style="rounded=1;whiteSpace=wrap;html=1;fontStyle=1;fontSize=20;fillColor=#fff2cc;strokeColor=#d6b656;" vertex="1" parent="1">
          <mxGeometry x="1120" y="169" width="180" height="60" as="geometry" />
        </mxCell>
        <mxCell id="o6N39BrIsIztjsTOsf7G-2" value="" style="rounded=1;whiteSpace=wrap;html=1;fillColor=none;strokeColor=#d6b656;" vertex="1" parent="1">
          <mxGeometry x="1100" y="241" width="220" height="440" as="geometry" />
        </mxCell>
        <mxCell id="o6N39BrIsIztjsTOsf7G-3" value="fact_sales" style="rounded=1;whiteSpace=wrap;html=1;fontStyle=1;fontSize=17;fillColor=#fff2cc;strokeColor=#d6b656;" vertex="1" parent="1">
          <mxGeometry x="1130" y="295" width="170" height="30" as="geometry" />
        </mxCell>
        <mxCell id="o6N39BrIsIztjsTOsf7G-4" value="dim_customers" style="rounded=1;whiteSpace=wrap;html=1;fontStyle=1;fontSize=17;fillColor=#fff2cc;strokeColor=#d6b656;" vertex="1" parent="1">
          <mxGeometry x="1130" y="395.00000000000006" width="170" height="30" as="geometry" />
        </mxCell>
        <mxCell id="o6N39BrIsIztjsTOsf7G-5" value="dim_products" style="rounded=1;whiteSpace=wrap;html=1;fontStyle=1;fontSize=17;fillColor=#fff2cc;strokeColor=#d6b656;" vertex="1" parent="1">
          <mxGeometry x="1130" y="510.0000000000001" width="170" height="30" as="geometry" />
        </mxCell>
        <mxCell id="o6N39BrIsIztjsTOsf7G-15" value="" style="endArrow=classic;html=1;rounded=0;entryX=0;entryY=0.5;entryDx=0;entryDy=0;jumpStyle=gap;" edge="1" parent="1" target="o6N39BrIsIztjsTOsf7G-3">
          <mxGeometry width="50" height="50" relative="1" as="geometry">
            <mxPoint x="997.5" y="310" as="sourcePoint" />
            <mxPoint x="1047.5" y="260" as="targetPoint" />
          </mxGeometry>
        </mxCell>
        <mxCell id="o6N39BrIsIztjsTOsf7G-16" value="" style="endArrow=classic;html=1;rounded=0;entryX=0;entryY=0.25;entryDx=0;entryDy=0;jumpStyle=gap;" edge="1" parent="1" target="o6N39BrIsIztjsTOsf7G-4">
          <mxGeometry width="50" height="50" relative="1" as="geometry">
            <mxPoint x="996.5" y="348.5" as="sourcePoint" />
            <mxPoint x="1130" y="410" as="targetPoint" />
          </mxGeometry>
        </mxCell>
        <mxCell id="o6N39BrIsIztjsTOsf7G-17" value="" style="endArrow=classic;html=1;rounded=0;entryX=0;entryY=0.5;entryDx=0;entryDy=0;jumpStyle=gap;" edge="1" parent="1" target="o6N39BrIsIztjsTOsf7G-4">
          <mxGeometry width="50" height="50" relative="1" as="geometry">
            <mxPoint x="994" y="504.5" as="sourcePoint" />
            <mxPoint x="1126.5" y="504.5" as="targetPoint" />
          </mxGeometry>
        </mxCell>
        <mxCell id="o6N39BrIsIztjsTOsf7G-18" value="" style="endArrow=classic;html=1;rounded=0;entryX=0;entryY=0.75;entryDx=0;entryDy=0;jumpStyle=gap;" edge="1" parent="1" target="o6N39BrIsIztjsTOsf7G-4">
          <mxGeometry width="50" height="50" relative="1" as="geometry">
            <mxPoint x="994" y="554.5" as="sourcePoint" />
            <mxPoint x="1126.5" y="554.5" as="targetPoint" />
          </mxGeometry>
        </mxCell>
        <mxCell id="o6N39BrIsIztjsTOsf7G-19" value="" style="endArrow=classic;html=1;rounded=0;entryX=0;entryY=0.25;entryDx=0;entryDy=0;jumpStyle=gap;" edge="1" parent="1" target="o6N39BrIsIztjsTOsf7G-5">
          <mxGeometry width="50" height="50" relative="1" as="geometry">
            <mxPoint x="997.5" y="391.7" as="sourcePoint" />
            <mxPoint x="1130" y="391.7" as="targetPoint" />
          </mxGeometry>
        </mxCell>
        <mxCell id="o6N39BrIsIztjsTOsf7G-20" value="" style="endArrow=classic;html=1;rounded=0;entryX=0;entryY=0.75;entryDx=0;entryDy=0;jumpStyle=gap;" edge="1" parent="1" target="o6N39BrIsIztjsTOsf7G-5">
          <mxGeometry width="50" height="50" relative="1" as="geometry">
            <mxPoint x="997.5" y="604.5" as="sourcePoint" />
            <mxPoint x="1130" y="604.5" as="targetPoint" />
          </mxGeometry>
        </mxCell>
      </root>
    </mxGraphModel>
  </diagram>
</mxfile>
